<svg width="142" height="135" viewBox="0 0 142 135" fill="none" xmlns="http://www.w3.org/2000/svg">
<path d="M116.788 66.3896C125.229 62.6329 141.864 55.5068 141.864 55.5068C141.864 55.5068 126.262 49.0969 118.079 45.5632C121.636 42.6635 138.682 34.3869 138.682 34.3869L112.679 36.5353L127.025 1.86762C127.025 1.86762 104.437 19.0195 95.6677 21.2148C95.703 17.1881 95.7851 6.52833 95.7851 6.52833C95.7851 6.52833 87.7903 15.2862 83.8223 18.2329C79.2085 11.3886 70.3919 0.904958 70.3919 0.904958C70.3919 0.904958 62.5145 10.5433 58.1708 17.1881C54.6019 14.3001 45.0339 0.740601 45.0339 0.740601C45.0339 0.740601 47.241 17.2585 47.0532 21.567C37.8961 19.3717 20.979 11.7408 20.979 11.7408C20.979 11.7408 28.3047 25.6407 31.0166 32.7668C26.0506 32.7316 9.42707 31.8276 3.48672 31.4637C8.28831 35.103 28.3399 49.59 28.3399 49.59L0 55.0842C0 55.0842 20.1573 59.9562 28.3399 63.4899C26.3441 65.11 21.1434 69.2776 16.964 72.6117H124.266C121.554 70.4633 119.053 68.3971 116.788 66.3896Z" fill="#F15A24"/>
<path d="M52.4768 48.5804H89.6568V72.6235H52.4768V48.5804Z" fill="url(#paint0_linear_2311_29)"/>
<path d="M136.828 59.7684C137.051 59.1815 137.18 58.5592 137.18 57.9018C137.18 54.9669 134.797 52.5837 131.862 52.5837C129.431 52.5837 127.4 54.2273 126.767 56.4578C124.724 57.1974 123.256 59.1345 123.256 61.4355C123.256 64.3704 125.64 66.7536 128.574 66.7536C128.915 66.7536 129.244 66.7184 129.572 66.648C130.3 67.0236 131.11 67.2584 131.991 67.2584C134.926 67.2584 137.309 64.8753 137.309 61.9403C137.309 61.1772 137.121 60.4376 136.828 59.7684Z" fill="#FFEA5C"/>
<path d="M117.081 2.77157C114.534 3.73424 113.242 6.58701 114.217 9.13455C114.792 10.649 116.025 11.6938 117.469 12.1165C118.49 14.5701 121.261 15.791 123.761 14.8518C126.309 13.8892 127.6 11.0364 126.626 8.48886C126.05 6.97442 124.818 5.92958 123.374 5.50695C122.352 3.05333 119.582 1.82065 117.081 2.77157Z" fill="#5C5CFF"/>
<path d="M18.5959 53.1002C18.6428 52.8537 18.6663 52.5954 18.6663 52.3371C18.6663 50.1065 16.8584 48.2869 14.6161 48.2869C12.3855 48.2869 10.5658 50.0948 10.5658 52.3371C10.5658 52.9476 10.7067 53.5111 10.9415 54.0276C8.59354 54.145 6.66821 56.0117 6.52734 58.4183C6.37472 60.9893 8.34701 63.1964 10.918 63.349C12.5029 63.443 13.9469 62.7268 14.8626 61.5646C15.4848 61.9403 16.2127 62.1751 16.9875 62.222C19.5585 62.3746 21.7656 60.4023 21.9182 57.8313C22.0474 55.636 20.6269 53.6989 18.5959 53.1002Z" fill="#45F9FF"/>
<path d="M13.2542 20.6043C16.496 20.6043 19.1241 18.2391 19.1241 15.3214C19.1241 12.4038 16.496 10.0385 13.2542 10.0385C10.0123 10.0385 7.38428 12.4038 7.38428 15.3214C7.38428 18.2391 10.0123 20.6043 13.2542 20.6043Z" fill="#4BFF17"/>
<path d="M128.786 29.7967C132.028 29.7967 134.656 27.4314 134.656 24.5138C134.656 21.5961 132.028 19.2308 128.786 19.2308C125.544 19.2308 122.916 21.5961 122.916 24.5138C122.916 27.4314 125.544 29.7967 128.786 29.7967Z" fill="#FF17C8"/>
<path d="M112.89 32.5203C111.88 31.9568 111.587 30.6184 111.998 29.5384C112.62 27.9183 113.007 26.1925 113.101 24.4081C113.641 14.1005 104.613 5.64786 92.991 5.76526C88.8938 5.80048 85.0783 6.9275 81.8499 8.80587C79.1615 3.54643 73.3972 -0.0694276 66.7173 0.00101126C59.7908 0.08319 53.9443 4.10994 51.5259 9.72158C49.7767 9.15806 47.9218 8.85283 46.0082 8.86457C36.5929 8.94675 29.7838 14.4762 30.4647 24.7955C30.5821 26.5447 31.9674 29.8436 31.9674 29.8436C31.9674 29.8436 29.1381 30.5363 26.8136 34.4574C24.9235 37.6389 24.7239 42.7691 26.3675 46.1502C28.9385 51.4449 36.0763 53.9337 41.3827 51.3862C42.1341 51.0222 42.9911 50.5644 43.7659 50.8814C44.1533 51.0457 45.7734 56.9861 60.3543 60.0149C68.76 61.7642 78.6214 55.6008 79.1732 55.589C79.8071 55.5773 80.3707 55.9647 80.8989 56.3169C80.8989 56.3169 84.7966 60.7898 93.5192 58.7001C101.749 56.7395 102.547 51.1514 103.252 50.9283C103.815 50.7522 113.465 53.7811 117.539 44.5419C119.323 40.4094 116.283 34.4104 112.89 32.5203Z" fill="#D2EDF7"/>
<path d="M30.3708 23.6685C30.4413 25.136 30.7817 29.0688 32.5779 30.1724C33.7871 30.912 34.8672 31.2642 35.8181 31.3816C37.6613 31.6046 38.7765 29.3271 37.5321 27.9536C36.1703 26.4626 34.7028 23.9033 34.1393 19.6183C33.3293 13.5723 38.0839 10.5317 38.0839 10.5317C38.0839 10.5317 29.913 13.8423 30.3708 23.6685Z" fill="#92CBEB"/>
<path d="M117.492 44.5654C118.666 41.9122 118.267 38.1672 116.13 35.7722C116.13 35.7722 117.433 39.1651 115.79 42.5344C114.123 45.9507 110.589 49.1439 106.903 48.2634C104.602 47.7116 106.856 43.9314 103.616 38.3668C103.78 43.6144 103.674 55.5069 88.2716 56.493C85.454 56.6691 78.7037 54.239 78.3045 50.1535C77.4123 41.2547 85.8649 42.4874 87.0741 42.6753C89.9739 43.1096 93.1436 41.8535 93.625 39.5642C94.0593 37.4863 93.0497 36.6645 92.0988 35.8427C89.3751 33.5182 85.0901 33.9526 82.0612 35.8779C77.4592 38.8129 75.3343 46.5846 71.6832 50.3531C67.4217 54.7438 60.5187 55.8004 54.637 54.1098C44.5643 51.2101 41.418 38.3668 41.418 38.3668C40.1031 41.7243 41.2654 46.1385 42.0754 48.1108C32.0379 50.1887 27.025 44.9645 25.4753 43.4383C25.6397 44.3775 25.9097 45.305 26.3323 46.1737C28.9034 51.4684 36.0412 53.9572 41.3476 51.4097C42.0989 51.0457 42.9559 50.5879 43.7308 50.9049C44.1182 51.0692 45.7383 57.0096 60.3191 60.0384C68.7248 61.7877 78.5863 55.6243 79.138 55.6125C79.772 55.6008 80.3355 55.9882 80.8638 56.3404C80.8638 56.3404 84.7614 60.8133 93.4841 58.7236C101.714 56.763 102.512 51.1749 103.216 50.9518C103.78 50.764 113.43 53.7929 117.492 44.5654Z" fill="#78C0E8"/>
<path d="M74.5243 1.72681C74.5243 1.72681 76.0857 3.95737 76.4027 5.11961C77.6354 9.66292 75.3109 12.6801 74.6417 13.9127C74.2895 14.5702 73.9726 15.3333 74.2191 16.0259C74.4891 16.7772 75.3109 17.1764 76.0857 17.2938C78.1754 17.6343 80.3473 16.4838 81.5095 14.7228C82.6483 12.9618 84.7262 5.89444 74.5243 1.72681Z" fill="#92CBEB"/>
<path d="M111.998 29.5384C112.62 27.9183 113.007 26.1925 113.101 24.4081C113.313 20.44 112.092 16.7655 109.861 13.7249C110.977 15.7558 111.258 18.2799 110.789 20.5809C110.143 23.7154 108.135 26.4508 105.811 28.6462C102.982 31.3111 104.989 32.5438 106.621 32.5438C110.554 32.532 111.775 30.1136 111.998 29.5384Z" fill="#92CBEB"/>
<path d="M78.5628 72.6117V64.7226C78.5628 63.2434 77.2479 62.0459 75.6278 62.0459C74.0077 62.0459 72.6929 63.2434 72.6929 64.7226V72.6117H78.5628Z" fill="#039BE5"/>
<path d="M66.9638 72.6117V60.5901C66.9638 59.6157 66.1773 58.8292 65.2029 58.8292C64.2285 58.8292 63.4419 59.6157 63.4419 60.5901V72.6117H66.9638Z" fill="#039BE5"/>
<path d="M70.6032 134.833C88.6825 134.833 105.588 128.728 118.032 117.81C130.746 106.528 137.837 90.9729 138.612 72.6118H2.59448C4.33197 115.321 38.6827 134.833 70.6032 134.833Z" fill="url(#paint1_radial_2311_29)"/>
<path d="M11.6929 104.38C11.869 104.673 12.0803 104.943 12.2681 105.237C12.1507 105.037 12.0216 104.838 11.9042 104.65C11.8337 104.556 11.7516 104.474 11.6929 104.38Z" fill="#EB8F00"/>
<path d="M136.029 72.6118C134.538 89.4349 127.576 103.734 115.672 114.288C103.228 125.206 86.3227 131.311 68.2434 131.311C47.147 131.311 24.994 122.764 11.8923 104.65C12.0097 104.849 12.1271 105.049 12.2563 105.237C12.6672 105.882 13.0781 106.505 13.5124 107.127C13.8294 107.585 14.1346 108.043 14.4634 108.489C15.156 109.428 15.8721 110.344 16.6117 111.236C16.9639 111.658 17.3279 112.058 17.6801 112.468C18.1849 113.044 18.7014 113.607 19.218 114.159C19.5937 114.558 19.9693 114.946 20.3567 115.333C21.0963 116.073 21.8594 116.8 22.646 117.493C23.0334 117.845 23.4326 118.174 23.82 118.514C24.4892 119.078 25.1583 119.63 25.8392 120.17C26.2384 120.487 26.6493 120.792 27.0602 121.097C27.7528 121.614 28.469 122.107 29.1851 122.6C29.5138 122.823 29.8425 123.058 30.1712 123.281C31.1691 123.926 32.1787 124.549 33.2118 125.136C33.5992 125.359 33.9984 125.57 34.3858 125.781C35.1489 126.204 35.9237 126.603 36.6986 127.002C37.0742 127.19 37.4616 127.39 37.8373 127.566C38.9291 128.094 40.0327 128.587 41.1597 129.057C41.4532 129.174 41.7467 129.28 42.0284 129.397C42.9324 129.761 43.8481 130.102 44.7756 130.43C45.163 130.571 45.5621 130.7 45.9495 130.841C46.9709 131.182 48.004 131.51 49.0371 131.804C49.2249 131.863 49.4128 131.921 49.5889 131.968C50.7981 132.309 52.0073 132.602 53.2282 132.884C53.5921 132.966 53.9443 133.037 54.3083 133.119C55.2827 133.33 56.2571 133.506 57.2315 133.682C57.5485 133.741 57.8537 133.8 58.1589 133.847C59.4034 134.046 60.6478 134.211 61.8922 134.351C62.1622 134.387 62.4322 134.398 62.6905 134.434C63.7119 134.539 64.7332 134.621 65.7546 134.68C66.1068 134.704 66.459 134.727 66.7994 134.739C68.0556 134.798 69.3235 134.845 70.5797 134.845C88.659 134.845 105.564 128.74 118.009 117.822C118.83 117.094 119.629 116.343 120.392 115.591C120.65 115.333 120.908 115.063 121.167 114.793C121.66 114.288 122.164 113.772 122.646 113.255C122.951 112.926 123.233 112.586 123.526 112.245C123.937 111.776 124.348 111.306 124.747 110.813C125.052 110.437 125.346 110.05 125.639 109.674C126.003 109.217 126.356 108.759 126.708 108.277C127.001 107.866 127.295 107.444 127.576 107.033C127.893 106.575 128.21 106.117 128.516 105.648C128.797 105.201 129.079 104.755 129.349 104.309C129.631 103.851 129.913 103.394 130.183 102.924C130.453 102.454 130.711 101.973 130.969 101.503C131.216 101.046 131.462 100.588 131.697 100.118C131.955 99.6251 132.19 99.1203 132.437 98.6037C132.648 98.1459 132.859 97.688 133.071 97.2184C133.305 96.6901 133.529 96.1618 133.752 95.6218C133.939 95.164 134.116 94.7061 134.292 94.2483C134.503 93.6965 134.714 93.133 134.902 92.5695C135.055 92.1233 135.207 91.6655 135.36 91.2076C135.548 90.6206 135.736 90.0337 135.912 89.4349C136.041 88.9888 136.158 88.5427 136.287 88.0849C136.452 87.4626 136.616 86.8404 136.769 86.2182C136.874 85.7838 136.968 85.3495 137.062 84.9034C137.203 84.2459 137.344 83.5885 137.473 82.9193C137.555 82.5084 137.614 82.0858 137.684 81.6749C137.802 80.9705 137.919 80.2661 138.013 79.55C138.06 79.1743 138.107 78.7987 138.142 78.4112C138.236 77.6482 138.33 76.8851 138.401 76.1102C138.424 75.8167 138.436 75.5232 138.459 75.2298C138.53 74.361 138.577 73.4805 138.624 72.6H136.029V72.6118Z" fill="#EB8F00"/>
<path d="M136.029 72.6118C134.538 89.4349 127.576 103.734 115.672 114.288C103.228 125.206 86.3227 131.311 68.2434 131.311C47.147 131.311 24.994 122.764 11.8923 104.65C12.0097 104.849 12.1271 105.049 12.2563 105.237C12.6672 105.882 13.0781 106.505 13.5124 107.127C13.8294 107.585 14.1346 108.043 14.4634 108.489C15.156 109.428 15.8721 110.344 16.6117 111.236C16.9639 111.658 17.3279 112.058 17.6801 112.468C18.1849 113.044 18.7014 113.607 19.218 114.159C19.5937 114.558 19.9693 114.946 20.3567 115.333C21.0963 116.073 21.8594 116.8 22.646 117.493C23.0334 117.845 23.4326 118.174 23.82 118.514C24.4892 119.078 25.1583 119.63 25.8392 120.17C26.2384 120.487 26.6493 120.792 27.0602 121.097C27.7528 121.614 28.469 122.107 29.1851 122.6C29.5138 122.823 29.8425 123.058 30.1712 123.281C31.1691 123.926 32.1787 124.549 33.2118 125.136C33.5992 125.359 33.9984 125.57 34.3858 125.781C35.1489 126.204 35.9237 126.603 36.6986 127.002C37.0742 127.19 37.4616 127.39 37.8373 127.566C38.9291 128.094 40.0327 128.587 41.1597 129.057C41.4532 129.174 41.7467 129.28 42.0284 129.397C42.9324 129.761 43.8481 130.102 44.7756 130.43C45.163 130.571 45.5621 130.7 45.9495 130.841C46.9709 131.182 48.004 131.51 49.0371 131.804C49.2249 131.863 49.4128 131.921 49.5889 131.968C50.7981 132.309 52.0073 132.602 53.2282 132.884C53.5921 132.966 53.9443 133.037 54.3083 133.119C55.2827 133.33 56.2571 133.506 57.2315 133.682C57.5485 133.741 57.8537 133.8 58.1589 133.847C59.4034 134.046 60.6478 134.211 61.8922 134.351C62.1622 134.387 62.4322 134.398 62.6905 134.434C63.7119 134.539 64.7332 134.621 65.7546 134.68C66.1068 134.704 66.459 134.727 66.7994 134.739C68.0556 134.798 69.3235 134.845 70.5797 134.845C88.659 134.845 105.564 128.74 118.009 117.822C118.83 117.094 119.629 116.343 120.392 115.591C120.65 115.333 120.908 115.063 121.167 114.793C121.66 114.288 122.164 113.772 122.646 113.255C122.951 112.926 123.233 112.586 123.526 112.245C123.937 111.776 124.348 111.306 124.747 110.813C125.052 110.437 125.346 110.05 125.639 109.674C126.003 109.217 126.356 108.759 126.708 108.277C127.001 107.866 127.295 107.444 127.576 107.033C127.893 106.575 128.21 106.117 128.516 105.648C128.797 105.201 129.079 104.755 129.349 104.309C129.631 103.851 129.913 103.394 130.183 102.924C130.453 102.454 130.711 101.973 130.969 101.503C131.216 101.046 131.462 100.588 131.697 100.118C131.955 99.6251 132.19 99.1203 132.437 98.6037C132.648 98.1459 132.859 97.688 133.071 97.2184C133.305 96.6901 133.529 96.1618 133.752 95.6218C133.939 95.164 134.116 94.7061 134.292 94.2483C134.503 93.6965 134.714 93.133 134.902 92.5695C135.055 92.1233 135.207 91.6655 135.36 91.2076C135.548 90.6206 135.736 90.0337 135.912 89.4349C136.041 88.9888 136.158 88.5427 136.287 88.0849C136.452 87.4626 136.616 86.8404 136.769 86.2182C136.874 85.7838 136.968 85.3495 137.062 84.9034C137.203 84.2459 137.344 83.5885 137.473 82.9193C137.555 82.5084 137.614 82.0858 137.684 81.6749C137.802 80.9705 137.919 80.2661 138.013 79.55C138.06 79.1743 138.107 78.7987 138.142 78.4112C138.236 77.6482 138.33 76.8851 138.401 76.1102C138.424 75.8167 138.436 75.5232 138.459 75.2298C138.53 74.361 138.577 73.4805 138.624 72.6H136.029V72.6118Z" fill="#EB8F00"/>
<path d="M138.448 75.2415C138.518 74.3728 138.577 73.4923 138.612 72.6118H138.6C138.565 73.4923 138.506 74.3728 138.448 75.2415Z" fill="#EB8F00"/>
<path d="M138.448 75.2415C138.518 74.3728 138.577 73.4923 138.612 72.6118H138.6C138.565 73.4923 138.506 74.3728 138.448 75.2415Z" fill="url(#paint2_radial_2311_29)"/>
<path d="M87.2855 118.561C87.2855 125.136 80.0186 128.998 71.0611 128.998C62.1036 128.998 54.8367 125.136 54.8367 118.561C54.8367 111.987 62.1036 104.838 71.0611 104.838C80.0186 104.838 87.2855 111.987 87.2855 118.561Z" fill="#422B0D"/>
<path d="M44.6347 101.773C54.691 101.773 62.8432 93.6212 62.8432 83.565C62.8432 73.5087 54.691 65.3565 44.6347 65.3565C34.5785 65.3565 26.4263 73.5087 26.4263 83.565C26.4263 93.6212 34.5785 101.773 44.6347 101.773Z" fill="white"/>
<path d="M44.6349 91.5129C48.9595 91.5129 52.4654 87.9545 52.4654 83.565C52.4654 79.1756 48.9595 75.6172 44.6349 75.6172C40.3103 75.6172 36.8044 79.1756 36.8044 83.565C36.8044 87.9545 40.3103 91.5129 44.6349 91.5129Z" fill="#422B0D"/>
<path d="M97.4638 101.773C107.52 101.773 115.672 93.6212 115.672 83.565C115.672 73.5087 107.52 65.3565 97.4638 65.3565C87.4076 65.3565 79.2554 73.5087 79.2554 83.565C79.2554 93.6212 87.4076 101.773 97.4638 101.773Z" fill="white"/>
<path d="M97.4874 91.6068C101.812 91.6068 105.318 88.0484 105.318 83.6589C105.318 79.2694 101.812 75.7111 97.4874 75.7111C93.1628 75.7111 89.657 79.2694 89.657 83.6589C89.657 88.0484 93.1628 91.6068 97.4874 91.6068Z" fill="#422B0D"/>
<defs>
<linearGradient id="paint0_linear_2311_29" x1="71.0694" y1="66.631" x2="71.0694" y2="74.9999" gradientUnits="userSpaceOnUse">
<stop stop-color="#78C0E8"/>
<stop offset="1" stop-color="#31A0D6"/>
</linearGradient>
<radialGradient id="paint1_radial_2311_29" cx="0" cy="0" r="1" gradientUnits="userSpaceOnUse" gradientTransform="translate(70.6031 69.2072) scale(66.8665 66.8665)">
<stop offset="0.5" stop-color="#FDE030"/>
<stop offset="0.9188" stop-color="#F7C02B"/>
<stop offset="1" stop-color="#F4A223"/>
</radialGradient>
<radialGradient id="paint2_radial_2311_29" cx="0" cy="0" r="1" gradientUnits="userSpaceOnUse" gradientTransform="translate(70.6032 69.2072) scale(66.8663 66.8665)">
<stop offset="0.5" stop-color="#FDE030"/>
<stop offset="0.9188" stop-color="#F7C02B"/>
<stop offset="1" stop-color="#F4A223"/>
</radialGradient>
</defs>
</svg>
