<svg width="250" height="250" viewBox="0 0 250 250" fill="none" xmlns="http://www.w3.org/2000/svg">
<rect width="250" height="250" fill="#F5F5F5"/>
<path d="M0 24C0 10.7452 10.7452 0 24 0H226C239.255 0 250 10.7452 250 24V226C250 239.255 239.255 250 226 250H24C10.7452 250 0 239.255 0 226V24Z" fill="url(#paint0_linear_0_1)"/>
<path d="M67.9062 205V45H131.031C143.167 45 153.505 47.3177 162.047 51.9531C170.589 56.5365 177.099 62.9167 181.578 71.0937C186.109 79.2187 188.375 88.5937 188.375 99.2187C188.375 109.844 186.083 119.219 181.5 127.344C176.917 135.469 170.276 141.797 161.578 146.328C152.932 150.859 142.464 153.125 130.172 153.125H89.9375V126.016H124.703C131.214 126.016 136.578 124.896 140.797 122.656C145.068 120.365 148.245 117.214 150.328 113.203C152.464 109.141 153.531 104.479 153.531 99.2187C153.531 93.9062 152.464 89.2708 150.328 85.3125C148.245 81.3021 145.068 78.2031 140.797 76.0156C136.526 73.776 131.109 72.6562 124.547 72.6562H101.734V205H67.9062Z" fill="#FDFDFD"/>
<defs>
<linearGradient id="paint0_linear_0_1" x1="125" y1="0" x2="125" y2="250" gradientUnits="userSpaceOnUse">
<stop stop-color="#06B6D4"/>
<stop offset="1" stop-color="#3B82F6"/>
</linearGradient>
</defs>
</svg>
